<svg width="353" height="651" viewBox="0 0 353 651" fill="none" xmlns="http://www.w3.org/2000/svg">
<path d="M0 1.09821C8.94247 0.366089 17.9372 0 27.0366 0C116.827 0 198.146 36.3974 256.978 95.2294C315.863 154.114 352.26 235.433 352.26 325.223C352.26 415.067 315.863 496.385 256.978 555.218C198.146 614.102 116.827 650.499 27.0366 650.499C17.9372 650.499 8.94247 650.133 0 649.401L0 557.257C8.89017 558.251 17.8849 558.774 27.0366 558.774C91.5165 558.774 149.93 532.678 192.185 490.372C234.439 448.117 260.587 389.756 260.587 325.223C260.587 260.744 234.439 202.33 192.185 160.075C149.93 117.821 91.5165 91.6734 27.0366 91.6734C17.8849 91.6734 8.89017 92.1964 0 93.2422L0 1.09821Z" fill="#333F55"/>
<path d="M0.261719 108.46C6.27566 107.937 12.2896 107.676 18.4081 107.676C78.7567 107.676 133.353 132.15 172.94 171.685C212.475 211.22 236.897 265.869 236.897 326.217C236.897 386.513 212.475 441.162 172.94 480.697C133.353 520.232 78.7567 544.706 18.4081 544.706C12.2896 544.706 6.27566 544.445 0.261719 543.922L0.261719 482.057C6.22336 482.737 12.2896 483.103 18.4081 483.103C61.7608 483.103 100.982 465.531 129.378 437.135C157.775 408.739 175.294 369.518 175.294 326.217C175.294 282.865 157.775 243.643 129.378 215.247C100.982 186.851 61.7608 169.279 18.4081 169.279C12.2896 169.279 6.22336 169.646 0.261719 170.325L0.261719 108.46Z" fill="#333F55"/>
<path d="M0.105469 200.133C3.40006 199.872 6.74695 199.715 10.1461 199.715C43.615 199.715 73.8939 213.259 95.8579 235.223C117.77 257.135 131.366 287.414 131.366 320.883C131.366 354.352 117.77 384.683 95.8579 406.594C73.8939 428.558 43.615 442.103 10.1461 442.103C6.74695 442.103 3.40006 441.946 0.105469 441.684L0.105469 407.379C3.40006 407.745 6.74695 407.954 10.1461 407.954C34.2019 407.954 55.9567 398.175 71.6975 382.434C87.4384 366.693 97.1653 344.938 97.1653 320.883C97.1653 296.879 87.4384 275.124 71.6975 259.384C55.9567 243.59 34.2019 233.864 10.1461 233.864C6.74695 233.864 3.40006 234.073 0.105469 234.439L0.105469 200.133Z" fill="#333F55"/>
</svg>
